<svg width="1600" height="1470" viewBox="0 0 1600 1470" fill="none" xmlns="http://www.w3.org/2000/svg">
<path d="M800.48 199.66C797.87 199.51 796.81 201.66 795.34 203.16C725.5 272.933 655.677 342.72 585.87 412.52C537.717 460.66 489.59 508.82 441.49 557C384.05 614.446 326.613 671.896 269.18 729.35C267.4 731.14 264.61 732.35 264.59 735.5C262.88 736.4 261.02 736.15 259.2 736.15C225.42 736.15 191.643 736.15 157.87 736.15C155.543 736.197 153.217 736.003 150.93 735.57C148.63 732.8 151.93 732.15 152.93 731.16C171.78 712.1 190.77 693.16 209.73 674.23L592.6 291.41C660.293 223.716 728.003 156.05 795.73 88.4098C796.91 87.2298 797.67 84.2498 800.52 86.0098C800.983 88.293 801.187 90.621 801.13 92.9499C801.13 126.73 801.13 160.513 801.13 194.3C801.13 196.09 801.39 197.95 800.48 199.66Z" fill="#FE7419"/>
<path d="M798.47 1269.32C800.75 1269.74 801.67 1267.82 802.89 1266.6C857.063 1212.47 911.22 1158.32 965.36 1104.16L1222.88 846.76C1259.26 810.386 1295.63 774.003 1331.98 737.61C1333.1 736.48 1334.73 735.55 1334.44 733.53C1336.16 732.63 1338.01 732.89 1339.83 732.89C1368.77 732.89 1397.71 732.89 1426.65 732.89C1433.77 732.89 1440.91 732.6 1448 733.66C1450.34 736.12 1447.2 736.66 1446.35 737.52C1422.78 761.273 1399.14 784.96 1375.43 808.58L1110.19 1073.86C1007.64 1176.4 905.07 1278.91 802.47 1381.4C801.54 1382.34 800.91 1385.4 798.47 1383.04C798.072 1380.92 797.877 1378.77 797.89 1376.62C797.84 1342.12 798.07 1307.62 797.78 1273.14C797.77 1271.82 797.58 1270.52 798.47 1269.32Z" fill="#FE7419"/>
<path d="M1448 733.68C1447.8 734.134 1447.47 734.521 1447.06 734.793C1446.64 735.064 1446.16 735.209 1445.66 735.21C1410.66 733.6 1375.66 734.96 1340.66 734.5C1338.54 734.5 1336.31 734.98 1334.4 733.5C1319.51 718.74 1304.57 704.03 1289.74 689.21C1231.07 630.61 1172.45 571.99 1113.87 513.35L878.77 278.18L802.77 202.27C801.95 201.45 801.23 200.53 800.47 199.66C799.28 198.06 799.47 196.2 799.47 194.38C799.47 159.973 799.47 125.563 799.47 91.15C799.47 89.4 798.83 87.44 800.47 85.98C814.78 100.14 829.14 114.23 843.38 128.46C940.56 225.56 1037.69 322.67 1134.77 419.79C1177.38 462.403 1219.98 505.023 1262.59 547.65C1263.15 548.256 1263.67 548.89 1264.16 549.55C1265.57 552.74 1268.24 554.74 1270.97 556.68C1277.97 562.13 1283.71 568.78 1289.97 574.98C1341.3 626.233 1392.6 677.52 1443.85 728.84C1445.34 730.34 1446.62 732.06 1448 733.68Z" fill="#E56B17"/>
<path d="M798.77 1003.22C780.817 985.413 762.87 967.597 744.93 949.77C693.81 898.723 642.757 847.613 591.77 796.44C588.49 793.14 587.01 793.75 584.1 796.67C523.333 857.61 462.523 918.507 401.67 979.36C398.82 982.22 397.33 982.53 394.34 979.49C377.2 962.03 359.913 944.697 342.48 927.49C340.32 925.35 339.76 924.18 342.26 921.68C404.26 859.853 466.187 797.973 528.04 736.04C528.659 735.492 529.31 734.981 529.99 734.51C530.41 734.132 530.913 733.858 531.459 733.71C532.004 733.562 532.577 733.545 533.13 733.66C538.67 734.375 544.281 734.335 549.81 733.54C550.712 733.427 551.626 733.453 552.52 733.62C553.653 733.893 554.815 734.027 555.98 734.02C585.29 734.02 614.59 734.16 643.87 733.93C644.401 733.787 644.95 733.723 645.5 733.74C647.86 734.01 649.19 735.84 650.69 737.34C699.39 786.007 748.077 834.673 796.75 883.34C798.51 885.1 800.42 886.78 800.82 889.47C801.39 894.29 801.12 899.12 801.13 903.93C801.13 934.35 801.11 964.77 801.07 995.19C801.05 998.01 802.27 1001.39 798.77 1003.22Z" fill="#E56B17"/>
<path d="M341.85 735.43C341.93 733.16 341.93 733.16 344.08 731.01L442.56 632.51C560.36 514.73 678.183 396.973 796.03 279.24C797.09 278.24 797.58 275.07 800.38 276.91C801.043 279.314 801.297 281.812 801.13 284.3C801.13 318.2 801.07 352.09 801.13 385.99C801.13 387.63 801.38 389.32 800.44 390.84C797.93 390.43 797.01 392.62 795.69 393.93C724.59 464.99 653.5 536.063 582.42 607.15L456.01 733.52C455.32 734.21 454.51 734.79 453.75 735.42C451.496 735.984 449.171 736.216 446.85 736.11H348.77C346.442 736.232 344.109 736.003 341.85 735.43Z" fill="#FE7519"/>
<path d="M1257.1 733.76C1259.03 736.29 1256.1 736.76 1255.16 737.63C1233.16 759.83 1211.06 781.973 1188.87 804.06C1060.24 932.673 931.59 1061.26 802.93 1189.81C801.86 1190.88 801.31 1193.98 798.5 1192.16C798.02 1190.05 797.799 1187.9 797.84 1185.74C797.84 1152.68 797.84 1119.62 797.84 1086.56C797.84 1083.81 797.26 1080.85 799.44 1078.49C812.93 1065.15 826.44 1051.88 839.89 1038.49C939.89 938.55 1039.85 838.587 1139.78 738.6C1141.07 737.31 1142.24 735.9 1143.46 734.6C1145.92 732.44 1148.89 733.16 1151.72 733.12C1184.72 733.24 1217.72 733.12 1250.79 733.12C1252.98 732.78 1255.02 733.52 1257.1 733.76Z" fill="#FE7519"/>
<path d="M1151.24 734.52H1143.51C1126.18 717.067 1108.82 699.613 1091.45 682.16C995.11 585.787 898.777 489.427 802.45 393.08C801.75 392.38 801.15 391.59 800.5 390.84C799.5 389.02 799.5 387.03 799.5 385.02C799.5 350.56 799.5 316.1 799.5 281.64C799.5 280.04 798.96 278.28 800.36 276.91C816.78 293.18 833.26 309.4 849.61 325.75C983.917 460.01 1118.2 594.293 1252.47 728.6C1254.1 730.23 1255.55 732.04 1257.08 733.76C1255.58 735.03 1253.79 734.32 1252.14 734.5C1250.42 733.5 1248.55 734.02 1246.76 734.02C1220.5 733.98 1194.24 733.98 1167.98 734.02C1162.41 733.99 1156.77 733.38 1151.24 734.52Z" fill="#E56B17"/>
<path d="M798.47 1269.32C799.208 1271.52 799.567 1273.82 799.53 1276.14C799.483 1310.06 799.463 1343.98 799.47 1377.89C799.47 1379.63 800.11 1381.6 798.47 1383.04C781.81 1366.52 765.09 1350.04 748.47 1333.47C646.123 1231.17 543.8 1128.85 441.5 1026.52C435.21 1020.23 435.18 1020.2 441.36 1014.01C457.12 998.22 473.02 982.56 488.6 966.59C491.84 963.27 493.41 963.87 496.33 966.8C562.897 1033.51 629.523 1100.16 696.21 1166.75C729.177 1199.71 762.143 1232.67 795.11 1265.64C796.28 1266.83 797.35 1268.1 798.47 1269.32Z" fill="#E56B17"/>
<path d="M799.49 1078.52C799.49 1114.52 799.49 1150.52 799.49 1186.52C799.49 1188.42 800.23 1190.52 798.49 1192.19C768.01 1161.74 737.493 1131.3 706.94 1100.86C649.933 1043.89 592.933 986.887 535.94 929.86C530.71 924.63 530.71 924.62 536.09 919.24C552.21 903.11 568.44 887.07 584.4 870.77C587.4 867.7 588.8 868.09 591.63 870.93C659.49 938.93 727.417 1006.88 795.41 1074.79C796.77 1076.11 798.14 1077.27 799.49 1078.52Z" fill="#E56B17"/>
<path d="M798.77 1003.22C800.07 1001.61 799.49 999.7 799.49 997.94C799.49 961.08 799.49 924.223 799.49 887.37C799.89 885.23 801.63 884.06 803.02 882.67C851.353 834.31 899.687 785.96 948.02 737.62C949.89 735.75 951.61 733.62 954.5 733.19C959.5 732.61 964.5 732.89 969.42 732.89C999.42 732.89 1029.44 732.89 1059.48 732.89C1062.48 732.89 1065.93 731.95 1068 735.39C1053.37 750.16 1038.8 764.99 1024.11 779.69C950.83 853.023 877.497 926.3 804.11 999.52C802.71 1001.03 801.87 1003.97 798.77 1003.22Z" fill="#FE7519"/>
<path d="M1068.05 735.42C1066.25 734.23 1064.22 734.51 1062.23 734.51H952.36C950.23 734.09 949.06 732.36 947.67 730.97C899.323 682.663 850.99 634.33 802.67 585.97C800.81 584.1 798.67 582.39 798.2 579.52C797.847 576.049 797.743 572.556 797.89 569.07C797.89 536.883 797.89 504.693 797.89 472.5C797.89 470.13 796.72 467.05 800.21 465.75C817.317 482.737 834.43 499.737 851.55 516.75C923.11 588.27 994.633 659.82 1066.12 731.4C1067.13 732.36 1070.02 732.9 1068.05 735.42Z" fill="#E56B17"/>
<path d="M800.25 465.78C799.84 466.28 799.06 466.78 799.07 467.26C800.07 505.39 799.19 543.52 799.5 581.64C799.08 583.78 797.34 584.95 795.96 586.34C747.76 634.56 699.55 682.767 651.33 730.96C649.94 732.34 648.77 734.08 646.64 734.51H645.64C644.59 735.21 643.39 734.98 642.25 734.98H555.08C553.93 734.98 552.74 735.21 551.69 734.51H549.69C544.05 735.288 538.33 735.288 532.69 734.51H529.97C545.53 718.8 561.03 703.04 576.66 687.4C648.987 615.073 721.357 542.78 793.77 470.52C795.59 468.64 796.77 465.52 800.25 465.78Z" fill="#FE7519"/>
<path d="M150.93 735.57C152.37 733.89 154.33 734.57 156.08 734.57C190.493 734.53 224.907 734.53 259.32 734.57C261.14 734.57 263 734.34 264.59 735.57C282.65 753.517 300.713 771.467 318.78 789.42C331.28 801.87 343.67 814.42 356.25 826.81C358.73 829.24 359.25 830.62 356.43 833.4C339.2 850.31 322.18 867.4 305.16 884.56C303.23 886.5 302.1 887.3 299.7 884.89C250.413 835.437 201.103 786.067 151.77 736.78C151.458 736.4 151.178 735.995 150.93 735.57Z" fill="#E56B17"/>
<path d="M341.85 735.43C343.37 733.91 345.3 734.54 347.05 734.54C380.89 734.5 414.727 734.5 448.56 734.54C450.31 734.54 452.25 733.91 453.75 735.46C435.82 753.52 417.85 771.52 400.02 789.68C397.5 792.24 396.45 790.39 394.95 788.89C380.483 774.41 366.013 759.93 351.54 745.45C348.26 742.15 345.08 738.77 341.85 735.43Z" fill="#E56B17"/>
<path d="M1271.01 556.68C1267.01 556 1264.55 553.76 1264.2 549.55C1266.77 551.62 1269.35 553.73 1271.01 556.68Z" fill="#E8702A"/>
<path d="M551.69 734.52H645.6C644.3 736.04 642.52 735.52 640.93 735.52C612.737 735.52 584.543 735.52 556.35 735.52C554.77 735.52 552.99 736.02 551.69 734.52Z" fill="#E8690E"/>
<path d="M532.7 734.52H549.7C544.146 736.121 538.254 736.121 532.7 734.52Z" fill="#E8690E"/>
<path d="M1151.24 734.52C1154.61 731.82 1158.89 733 1162.34 733.11C1167.44 733.28 1172.59 733.45 1177.7 733.48C1200.63 733.59 1223.55 733.48 1246.48 733.56C1248.39 733.56 1250.48 732.81 1252.16 734.56L1151.24 734.52Z" fill="#E9660F"/>
<path d="M724.51 735.52C722.57 734.04 724.41 733.28 725.19 732.52C749.25 708.414 773.337 684.324 797.45 660.25C798.21 659.49 798.98 657.66 800.45 659.55C800.948 661.653 801.173 663.81 801.12 665.97C801.12 686.11 801.12 706.25 801.12 726.39C801.12 729.18 801.53 732.09 799.71 734.59C797.93 736.13 795.71 736.1 793.58 736.11C772.2 736.19 750.83 736.11 729.45 736.17C727.789 736.08 726.138 735.863 724.51 735.52Z" fill="#FE7519"/>
<path d="M799.5 734.52C799.5 711.26 799.5 687.996 799.5 664.73C799.5 662.98 798.87 661.04 800.5 659.55C817.207 676.123 833.913 692.696 850.62 709.27C858.15 716.75 865.68 724.27 873.09 731.82C873.93 732.68 876.66 733.33 874.44 735.5C872.686 736.035 870.851 736.255 869.02 736.15C848.55 736.09 828.02 736.15 807.6 736.15C805.12 736.15 802.6 736.42 800.24 735.23L799.5 734.52Z" fill="#E56B17"/>
<path d="M724.51 735.52C726.14 733.76 728.27 734.52 730.17 734.52C753.28 734.46 776.39 734.52 799.5 734.52C801.22 736.43 801.13 738.81 801.13 741.13C801.13 761.89 801.13 782.657 801.13 803.43C801.13 805.78 800.98 808.09 799.51 810.08C792.96 805.28 787.78 799.08 782.06 793.37C763.43 774.93 744.95 756.37 726.42 737.8C725.77 737.09 725.15 736.29 724.51 735.52Z" fill="#E56B17"/>
<path d="M799.51 810.06V734.5H868.14C870.29 734.5 872.47 734.27 874.43 735.5C863.43 746.69 852.37 757.92 841.28 769.08C828.773 781.66 816.223 794.2 803.63 806.7C802.37 807.92 801.46 809.65 799.51 810.06Z" fill="#FE7519"/>
</svg>
